<?xml version="1.0" encoding="utf-8"?>
<svg xmlns="http://www.w3.org/2000/svg" xmlns:xlink="http://www.w3.org/1999/xlink" version="1.1" id="Layer_1" x="0px" y="0px" viewBox="0 0 612 290.45" style="enable-background:new 0 0 612 290.45;" xml:space="preserve">
<style type="text/css">
	.st0{fill:#053020;}
	.st1{fill:#EDEDEE;}
	.st2{fill:#F15D28;}
	.st3{fill:#063021;}
</style>
<g>
	<g>
		<g>
			<g>
				<g>
					<path class="st3" d="M252,125.38c2.63,1.25,4.64,3.03,6.04,5.34c1.4,2.31,2.1,5.05,2.1,8.22c0,1.42-0.13,2.8-0.39,4.14       c-0.67,3.92-2.12,7.34-4.34,10.27c-2.22,2.93-5.03,5.19-8.42,6.8c-3.39,1.6-7.16,2.41-11.3,2.41h-13.65l6.94-39.05h13.65       C246.25,123.5,249.37,124.13,252,125.38z M246.69,152.71c2.63-2.31,4.32-5.52,5.06-9.62c0.19-1.23,0.28-2.29,0.28-3.19       c0-3.13-0.92-5.56-2.77-7.27c-1.85-1.72-4.54-2.57-8.08-2.57h-5.48l-4.59,26.13h5.48       C240.69,156.18,244.06,155.02,246.69,152.71z"></path>
					<path class="st3" d="M326.3,133.71c1.85,1.74,2.77,4.21,2.77,7.41c0,1.19-0.09,2.28-0.28,3.25l-3.25,18.18h-7.78l3.02-17.12       c0.11-0.67,0.17-1.32,0.17-1.96c0-1.87-0.49-3.28-1.48-4.25c-0.99-0.97-2.4-1.46-4.22-1.46c-2.09,0-3.87,0.63-5.34,1.88       c-1.47,1.25-2.45,3.05-2.94,5.4l-3.08,17.51H296l5.48-30.99h7.89l-0.67,3.8c1.27-1.31,2.78-2.34,4.53-3.11       c1.75-0.76,3.58-1.15,5.48-1.15C321.93,131.11,324.45,131.98,326.3,133.71z"></path>
					<path class="st3" d="M337.1,138.61c1.66-2.42,3.68-4.29,6.07-5.59c2.39-1.3,4.9-1.96,7.55-1.96c2.31,0,4.26,0.47,5.85,1.4       c1.59,0.93,2.75,2.11,3.5,3.52l0.78-4.42h7.89l-5.48,30.99h-7.89l0.84-4.53c-1.23,1.45-2.82,2.66-4.78,3.61       c-1.96,0.95-4.09,1.43-6.41,1.43c-2.27,0-4.29-0.51-6.04-1.54c-1.75-1.03-3.12-2.48-4.08-4.36c-0.97-1.88-1.45-4.07-1.45-6.57       c0-1.15,0.11-2.37,0.34-3.64C334.33,143.81,335.44,141.03,337.1,138.61z M358.33,144.93c0-2.2-0.64-3.92-1.93-5.15       c-1.29-1.23-2.9-1.85-4.84-1.85c-1.45,0-2.86,0.36-4.22,1.06c-1.36,0.71-2.54,1.74-3.55,3.1c-1.01,1.36-1.68,2.98-2.01,4.84       c-0.11,0.71-0.17,1.38-0.17,2.01c0,2.24,0.63,4,1.9,5.29c1.27,1.29,2.87,1.93,4.81,1.93c1.45,0,2.87-0.36,4.25-1.09       c1.38-0.73,2.56-1.78,3.55-3.16c0.99-1.38,1.65-3,1.99-4.87C358.25,146.09,358.33,145.38,358.33,144.93z"></path>
					<path class="st3" d="M422.78,133.74c1.9,1.75,2.85,4.23,2.85,7.44c0,1.19-0.09,2.26-0.28,3.19l-3.25,18.18h-7.78l3.02-17.12       c0.11-0.67,0.17-1.32,0.17-1.96c0-1.79-0.49-3.16-1.48-4.11c-0.99-0.95-2.4-1.43-4.22-1.43c-2.16,0-3.99,0.64-5.48,1.93       c-1.49,1.29-2.42,3.14-2.8,5.57v-0.06l-3.08,17.17h-7.78l3.02-17.12c0.11-0.67,0.17-1.31,0.17-1.9c0-1.83-0.5-3.22-1.51-4.17       c-1.01-0.95-2.42-1.43-4.25-1.43c-2.05,0-3.81,0.61-5.29,1.82c-1.47,1.21-2.43,2.94-2.88,5.17l-3.13,17.62h-7.89l5.48-30.99       h7.89l-0.67,3.69c1.23-1.27,2.7-2.27,4.42-3.02c1.71-0.75,3.52-1.12,5.43-1.12c2.42,0,4.49,0.51,6.21,1.54       c1.72,1.03,2.93,2.49,3.64,4.39c1.31-1.79,3.01-3.23,5.12-4.31c2.11-1.08,4.3-1.62,6.57-1.62       C418.28,131.11,420.87,131.99,422.78,133.74z"></path>
					<path class="st3" d="M442.91,131.56l-5.48,30.99h-7.89l5.48-30.99H442.91z M436.71,126.8c-0.75-0.71-1.12-1.6-1.12-2.68       c0-1.49,0.57-2.77,1.71-3.83c1.14-1.06,2.47-1.59,4-1.59c1.19,0,2.16,0.36,2.91,1.06c0.75,0.71,1.12,1.6,1.12,2.69       c0,1.49-0.56,2.77-1.68,3.83s-2.44,1.59-3.97,1.59C438.44,127.87,437.45,127.51,436.71,126.8z"></path>
					<path class="st3" d="M449.29,138.64c1.72-2.41,3.85-4.27,6.41-5.59c2.55-1.32,5.32-1.99,8.31-1.99c3.84,0,6.85,0.95,9.04,2.85       c2.18,1.9,3.4,4.61,3.66,8.11h-8.45c-0.22-1.34-0.8-2.4-1.73-3.16c-0.93-0.76-2.18-1.15-3.75-1.15c-2.24,0-4.15,0.81-5.73,2.43       c-1.59,1.62-2.64,3.93-3.16,6.91c-0.19,1.04-0.28,1.94-0.28,2.68c0,2.13,0.52,3.76,1.57,4.9c1.04,1.14,2.5,1.71,4.36,1.71       c3.13,0,5.44-1.42,6.94-4.25h8.45c-1.45,3.36-3.63,6.02-6.52,8c-2.89,1.98-6.22,2.97-9.99,2.97c-3.92,0-7.04-1.11-9.37-3.33       c-2.33-2.22-3.5-5.23-3.5-9.03c0-1.16,0.11-2.37,0.34-3.64C446.44,143.85,447.58,141.04,449.29,138.64z"></path>
					<path class="st3" d="M484.73,161.91c-1.85-0.76-3.3-1.83-4.36-3.19c-1.06-1.36-1.6-2.92-1.6-4.67c0-0.26,0.04-0.69,0.11-1.29       h7.61c-0.11,1.31,0.28,2.36,1.17,3.16c0.89,0.8,2.16,1.2,3.8,1.2c1.49,0,2.73-0.27,3.72-0.81c0.99-0.54,1.48-1.33,1.48-2.38       c0-0.93-0.46-1.68-1.37-2.24c-0.91-0.56-2.36-1.19-4.34-1.9c-1.98-0.71-3.62-1.4-4.92-2.07c-1.31-0.67-2.42-1.6-3.36-2.8       c-0.93-1.19-1.4-2.7-1.4-4.53c0-1.83,0.53-3.45,1.6-4.87c1.06-1.42,2.54-2.52,4.45-3.3c1.9-0.78,4.08-1.18,6.55-1.18       c2.35,0,4.42,0.39,6.21,1.18c1.79,0.78,3.18,1.87,4.17,3.27c0.99,1.4,1.48,2.99,1.48,4.78c0,0.45-0.02,0.78-0.06,1.01h-7.27       c0.11-1.3-0.26-2.35-1.12-3.13c-0.86-0.78-2.11-1.17-3.75-1.17c-1.34,0-2.44,0.29-3.3,0.87c-0.86,0.58-1.29,1.35-1.29,2.32       c0,0.97,0.48,1.76,1.45,2.38c0.97,0.62,2.46,1.3,4.48,2.04c2.01,0.78,3.63,1.5,4.84,2.15c1.21,0.65,2.27,1.55,3.16,2.69       c0.89,1.14,1.34,2.56,1.34,4.28c0,1.9-0.58,3.56-1.73,4.98c-1.16,1.42-2.74,2.5-4.76,3.25c-2.01,0.75-4.29,1.12-6.82,1.12       C488.64,163.06,486.58,162.67,484.73,161.91z"></path>
					<polygon class="st3" points="265.09,171.75 273.36,171.75 297.35,131.56 289.01,131.56 276.98,153.21 272.84,131.56        264.06,131.56 271.16,161.77      "></polygon>
				</g>
			</g>
		</g>
		<g>
			<polygon class="st3" points="126.13,121.73 106.26,162.94 114.55,162.94 126.13,137.7 137.7,162.94 146,162.94    "></polygon>
			<g>
				<polygon class="st3" points="166.94,154.55 146.08,154.55 146.08,121.66 137.75,121.66 137.75,142.29 147.67,162.87       166.94,162.87     "></polygon>
			</g>
			<g>
				<g>
					<path class="st3" d="M172,128.52c0.05-0.06,0.1-0.12,0.16-0.18C172.11,128.4,172.05,128.46,172,128.52z"></path>
				</g>
				<g>
					<path class="st3" d="M178.56,123.4c-2.38,1.13-4.42,2.67-6.14,4.64C174.16,126.14,176.24,124.56,178.56,123.4z"></path>
				</g>
				<path class="st3" d="M172.16,128.34c0.09-0.1,0.18-0.2,0.27-0.31C172.33,128.14,172.25,128.24,172.16,128.34z"></path>
				<path class="st3" d="M191.33,129.31c1.04,0.3,2.03,0.72,2.94,1.25C193.39,130.02,192.41,129.6,191.33,129.31z"></path>
				<g>
					<path class="st3" d="M204.72,129.72c-0.91-1.36-2.01-2.59-3.32-3.67c-1.8-1.48-3.86-2.61-6.14-3.39       c-2.23-0.82-4.64-1.27-7.15-1.27c-0.06,0-0.12,0-0.18,0c-3.06-0.05-5.94,0.49-8.64,1.66c-0.25,0.11-0.49,0.23-0.73,0.34       c-2.32,1.16-4.4,2.74-6.14,4.64c-0.09,0.1-0.18,0.2-0.27,0.31c-0.05,0.06-0.1,0.12-0.16,0.18c-0.28,0.34-0.54,0.69-0.8,1.05       c-2.11,2.94-3.37,6.36-3.78,10.31c-0.4,3.93,0.11,7.55,1.56,10.84c0.37,0.81,0.8,1.57,1.25,2.31c0.09,0.14,0.17,0.29,0.26,0.43       c1.21,0.5,2.87,1.07,4.78,1.43c2.51,0.47,5.46,0.58,8.43-0.32c-1.2-0.39-2.29-0.92-3.26-1.63c-0.08-0.06-0.15-0.12-0.23-0.18       c-1.47-1.02-2.73-2.33-3.68-3.85c-1.26-2.02-1.99-4.4-1.99-6.96c0-7.27,5.89-13.16,13.16-13.16c1.26,0,2.48,0.18,3.64,0.51       c1.08,0.29,2.06,0.71,2.94,1.25c1.37,0.8,2.59,1.83,3.59,3.05h9.21C206.52,132.25,205.52,130.91,204.72,129.72z"></path>
				</g>
				<path class="st2" d="M200.8,143.1h-9.49h-3.86v5.81h3.75h4.57h3.09c-1.6,2.57-4.07,4.54-6.99,5.52      c-1.23,0.41-2.43,0.93-3.63,1.43c-4.78,1.97-9.8,1.42-12.96,0.71c-1.96-0.44-3.21-0.95-3.25-0.96c0,0,0,0,0,0      c0,0,0.01,0.01,0.01,0.01c0.96,1.18,3.24,3.4,3.24,3.4c2.09,1.58,4.48,2.78,7.07,3.5c1.79,0.5,3.67,0.77,5.62,0.77      c0.03,0,0.06,0,0.09,0c0.02,0,0.04,0,0.05,0c0.19,0,0.37-0.01,0.56-0.01c0.01,0,0.02,0,0.03,0c1.72-0.05,3.4-0.31,4.99-0.75      c2.75-0.77,5.27-2.09,7.44-3.84v4.61h5.81v-11.93v-0.07v-2.35v-5.81H200.8z"></path>
			</g>
		</g>
	</g>
</g>
</svg>
