<?xml version="1.0" encoding="utf-8"?>
<svg xmlns="http://www.w3.org/2000/svg" xmlns:xlink="http://www.w3.org/1999/xlink" version="1.1" id="Layer_1" x="0px" y="0px" viewBox="0 0 500 500.01" style="enable-background:new 0 0 500 500.01;" xml:space="preserve">
<style type="text/css">
	.st0{fill:#053020;}
	.st1{fill:#F15D28;}
</style>
<rect x="1.9" y="-597.91" class="st0" width="513.19" height="513.19"></rect>
<path class="st1" d="M336.54-410.87h-65.45h-26.63v40.06h25.89h31.51h21.31c-11.06,17.71-28.06,31.33-48.21,38.07  c-8.51,2.85-16.75,6.44-25.05,9.86c-32.93,13.56-67.55,9.82-89.38,4.9c-13.52-3.04-22.15-6.54-22.42-6.65c0,0-0.02-0.01-0.02-0.01  c0.02,0.02,0.04,0.04,0.06,0.06c6.64,8.13,22.38,23.42,22.38,23.42c14.4,10.91,30.9,19.17,48.78,24.12  c12.35,3.42,25.34,5.28,38.77,5.28c0.21,0,0.42-0.01,0.63-0.01c0.13,0,0.25,0.01,0.38,0.01c1.28,0,2.55-0.05,3.83-0.08  c0.07,0,0.14,0,0.21,0c11.89-0.33,23.41-2.11,34.41-5.19c18.97-5.31,36.36-14.41,51.3-26.48v31.76h40.06v-82.29v-0.52v-16.24v-40.06  H336.54z"></path>
<path class="st1" d="M328.04,180.45h-65.45h-26.63v40.06h25.89h31.51h21.31c-11.06,17.71-28.06,31.33-48.21,38.07  c-8.51,2.85-16.75,6.44-25.05,9.86c-32.93,13.56-67.55,9.82-89.38,4.9c-13.52-3.04-22.15-6.54-22.42-6.65c0,0-0.02-0.01-0.02-0.01  c0.02,0.02,0.04,0.04,0.06,0.06c6.64,8.13,22.38,23.42,22.38,23.42c14.4,10.91,30.9,19.17,48.78,24.12  c12.35,3.42,25.34,5.28,38.77,5.28c0.21,0,0.42-0.01,0.63-0.01c0.13,0,0.25,0.01,0.38,0.01c1.28,0,2.55-0.05,3.83-0.08  c0.07,0,0.14,0,0.21,0c11.89-0.33,23.41-2.11,34.41-5.19c18.97-5.31,36.36-14.41,51.3-26.48v31.76h40.06v-82.29v-0.52v-16.24v-40.06  H328.04z"></path>
</svg>
